<?xml version="1.0" encoding="UTF-8" standalone="no"?>
<!DOCTYPE svg PUBLIC "-//W3C//DTD SVG 1.1//EN"
 "http://www.w3.org/Graphics/SVG/1.1/DTD/svg11.dtd">
<!-- Generated by graphviz version 2.40.1 (20161225.0304)
 -->
<!-- Title: dependencies Pages: 1 -->
<svg width="543pt" height="284pt"
 viewBox="0.00 0.00 543.00 284.00" xmlns="http://www.w3.org/2000/svg" xmlns:xlink="http://www.w3.org/1999/xlink">
<g id="graph0" class="graph" transform="scale(1 1) rotate(0) translate(4 280)">
<title>dependencies</title>
<polygon fill="#ffffff" stroke="transparent" points="-4,4 -4,-280 539,-280 539,4 -4,4"/>
<text text-anchor="start" x="246.5091" y="-42.4" font-family="sans-serif" font-weight="bold" font-size="14.00" fill="#000000">Legend</text>
<polygon fill="#ffffb3" stroke="transparent" points="33.5,-10 33.5,-30 53.5,-30 53.5,-10 33.5,-10"/>
<text text-anchor="start" x="57.129" y="-15.4" font-family="sans-serif" font-size="14.00" fill="#000000"> &#160;Declarations</text>
<polygon fill="#8dd3c7" stroke="transparent" points="146.5,-10 146.5,-30 166.5,-30 166.5,-10 146.5,-10"/>
<text text-anchor="start" x="170.2251" y="-15.4" font-family="sans-serif" font-size="14.00" fill="#000000"> &#160;Module</text>
<polygon fill="#80b1d3" stroke="transparent" points="232.5,-10 232.5,-30 252.5,-30 252.5,-10 232.5,-10"/>
<text text-anchor="start" x="256.2812" y="-15.4" font-family="sans-serif" font-size="14.00" fill="#000000"> &#160;Bootstrap</text>
<polygon fill="#fdb462" stroke="transparent" points="329.5,-10 329.5,-30 349.5,-30 349.5,-10 329.5,-10"/>
<text text-anchor="start" x="353.1732" y="-15.4" font-family="sans-serif" font-size="14.00" fill="#000000"> &#160;Providers</text>
<polygon fill="#fb8072" stroke="transparent" points="425.5,-10 425.5,-30 445.5,-30 445.5,-10 425.5,-10"/>
<text text-anchor="start" x="449.2258" y="-15.4" font-family="sans-serif" font-size="14.00" fill="#000000"> &#160;Exports</text>
<g id="clust1" class="cluster">
<title>cluster_AppModule</title>
<polygon fill="none" stroke="#000000" stroke-dasharray="1,5" points="8,-70 8,-268 527,-268 527,-70 8,-70"/>
</g>
<g id="clust2" class="cluster">
<title>cluster_AppModule_declarations</title>
<polygon fill="none" stroke="#000000" points="271,-78 271,-130 519,-130 519,-78 271,-78"/>
</g>
<g id="clust5" class="cluster">
<title>cluster_AppModule_imports</title>
<polygon fill="none" stroke="#000000" points="16,-78 16,-130 263,-130 263,-78 16,-78"/>
</g>
<g id="clust7" class="cluster">
<title>cluster_AppModule_bootstrap</title>
<polygon fill="none" stroke="#000000" points="205,-208 205,-260 329,-260 329,-208 205,-208"/>
</g>
<!-- AppComponent -->
<g id="node1" class="node">
<title>AppComponent</title>
<polygon fill="#ffffb3" stroke="#000000" points="510.9399,-122 405.0601,-122 405.0601,-86 510.9399,-86 510.9399,-122"/>
<text text-anchor="middle" x="458" y="-99.8" font-family="Times,serif" font-size="14.00" fill="#000000">AppComponent</text>
</g>
<!-- AppModule -->
<g id="node3" class="node">
<title>AppModule</title>
<polygon fill="#8dd3c7" stroke="#000000" points="308.6571,-187 305.6571,-191 284.6571,-191 281.6571,-187 225.3429,-187 225.3429,-151 308.6571,-151 308.6571,-187"/>
<text text-anchor="middle" x="267" y="-164.8" font-family="Times,serif" font-size="14.00" fill="#000000">AppModule</text>
</g>
<!-- AppComponent&#45;&gt;AppModule -->
<g id="edge1" class="edge">
<title>AppComponent&#45;&gt;AppModule</title>
<path fill="none" stroke="#000000" d="M458,-122.1061C458,-141.3391 458,-169 458,-169 458,-169 318.9158,-169 318.9158,-169"/>
<polygon fill="#000000" stroke="#000000" points="318.9158,-165.5001 308.9158,-169 318.9157,-172.5001 318.9158,-165.5001"/>
</g>
<!-- BaseComponent -->
<g id="node2" class="node">
<title>BaseComponent</title>
<polygon fill="#ffffb3" stroke="#000000" points="387.0438,-122 278.9562,-122 278.9562,-86 387.0438,-86 387.0438,-122"/>
<text text-anchor="middle" x="333" y="-99.8" font-family="Times,serif" font-size="14.00" fill="#000000">BaseComponent</text>
</g>
<!-- BaseComponent&#45;&gt;AppModule -->
<g id="edge2" class="edge">
<title>BaseComponent&#45;&gt;AppModule</title>
<path fill="none" stroke="#000000" d="M293.7784,-122.1061C293.7784,-122.1061 293.7784,-140.991 293.7784,-140.991"/>
<polygon fill="#000000" stroke="#000000" points="290.2785,-140.9909 293.7784,-150.991 297.2785,-140.991 290.2785,-140.9909"/>
</g>
<!-- AppComponent  -->
<g id="node6" class="node">
<title>AppComponent </title>
<polygon fill="#80b1d3" stroke="#000000" points="321.439,-252 212.561,-252 212.561,-216 321.439,-216 321.439,-252"/>
<text text-anchor="middle" x="267" y="-229.8" font-family="Times,serif" font-size="14.00" fill="#000000">AppComponent </text>
</g>
<!-- AppModule&#45;&gt;AppComponent  -->
<g id="edge5" class="edge">
<title>AppModule&#45;&gt;AppComponent </title>
<path fill="none" stroke="#000000" stroke-dasharray="1,5" d="M267,-187.1061C267,-187.1061 267,-205.991 267,-205.991"/>
<polygon fill="#000000" stroke="#000000" points="263.5001,-205.9909 267,-215.991 270.5001,-205.991 263.5001,-205.9909"/>
</g>
<!-- MaterialModule -->
<g id="node4" class="node">
<title>MaterialModule</title>
<polygon fill="#8dd3c7" stroke="#000000" points="255.4706,-122 252.4706,-126 231.4706,-126 228.4706,-122 148.5294,-122 148.5294,-86 255.4706,-86 255.4706,-122"/>
<text text-anchor="middle" x="202" y="-99.8" font-family="Times,serif" font-size="14.00" fill="#000000">MaterialModule</text>
</g>
<!-- MaterialModule&#45;&gt;AppModule -->
<g id="edge3" class="edge">
<title>MaterialModule&#45;&gt;AppModule</title>
<path fill="none" stroke="#000000" d="M240.3286,-122.1061C240.3286,-122.1061 240.3286,-140.991 240.3286,-140.991"/>
<polygon fill="#000000" stroke="#000000" points="236.8286,-140.9909 240.3286,-150.991 243.8286,-140.991 236.8286,-140.9909"/>
</g>
<!-- WeatherModule -->
<g id="node5" class="node">
<title>WeatherModule</title>
<polygon fill="#8dd3c7" stroke="#000000" points="130.4594,-122 127.4594,-126 106.4594,-126 103.4594,-122 23.5406,-122 23.5406,-86 130.4594,-86 130.4594,-122"/>
<text text-anchor="middle" x="77" y="-99.8" font-family="Times,serif" font-size="14.00" fill="#000000">WeatherModule</text>
</g>
<!-- WeatherModule&#45;&gt;AppModule -->
<g id="edge4" class="edge">
<title>WeatherModule&#45;&gt;AppModule</title>
<path fill="none" stroke="#000000" d="M77,-122.1061C77,-141.3391 77,-169 77,-169 77,-169 215.3037,-169 215.3037,-169"/>
<polygon fill="#000000" stroke="#000000" points="215.3037,-172.5001 225.3037,-169 215.3037,-165.5001 215.3037,-172.5001"/>
</g>
</g>
</svg>
